<svg width="70" height="60" viewBox="0 0 70 60" fill="none" xmlns="http://www.w3.org/2000/svg">
<path d="M59.5182 34.9573C58.28 44.6012 51.3333 53.0004 41.3679 55.5771C31.5299 58.127 21.5177 54.2854 15.7221 46.656C22.2272 46.5154 29.9974 45.2908 37.5399 43.3432C45.658 41.2416 53.602 38.2768 59.5182 34.9573Z" fill="#505967"/>
<path d="M59.6978 30.8351C59.631 29.1487 59.3832 27.4355 58.9416 25.7354C55.562 12.6585 42.1839 4.76817 29.1069 8.14775C16.0367 11.5275 8.15305 24.9191 11.5328 37.996C12.0081 39.8364 12.6906 41.5763 13.5339 43.1959C19.3294 43.3098 27.3136 42.433 36.6762 40.0171C46.8417 37.3868 54.7053 33.9538 59.6978 30.8351ZM69.1877 23.3061C69.9773 26.378 67.5213 29.6304 63.1377 32.7022C62.7764 44.7955 54.5112 55.7307 42.224 58.9095C30.1107 62.0416 17.77 56.6877 11.4992 46.5755C5.37573 46.1807 1.01891 44.5143 0.148844 41.1614C-0.714543 37.8286 2.24347 34.2884 7.33645 31.0024C7.71122 18.9159 15.9697 7.99401 28.2502 4.81518C40.7048 1.59626 53.407 7.35833 59.497 18.0394C64.7373 18.608 68.3981 20.261 69.1877 23.3061ZM62.9504 28.5328C65.1121 26.7592 66.1292 25.2134 65.8616 24.1693C65.594 23.1319 63.9744 22.2821 61.2639 21.7734C61.6521 22.7705 61.9934 23.8079 62.2677 24.872C62.5823 26.0901 62.8031 27.3149 62.9504 28.5328ZM41.3675 55.5768C51.3324 53.0002 58.2792 44.6012 59.5173 34.9575C53.6013 38.2769 45.6575 41.2416 37.5396 43.3432C29.9973 45.2908 22.2275 46.5153 15.7223 46.6559C21.5178 54.2851 31.5296 58.1266 41.3675 55.5768ZM9.59864 42.935C9.04317 41.63 8.56792 40.2715 8.20652 38.8527C7.87855 37.5945 7.65106 36.3296 7.50378 35.0647C4.57919 37.1997 3.16034 39.0869 3.47494 40.298C3.78977 41.5228 5.96462 42.4865 9.59864 42.935Z" fill="#2D213F"/>
<path d="M45.2758 15.9777C45.8847 15.9777 46.4738 15.6565 46.7882 15.0876C47.2432 14.251 46.9355 13.2071 46.1055 12.7519L44.526 11.8952C43.6961 11.4402 42.6522 11.7412 42.197 12.5779C41.742 13.4145 42.0497 14.4584 42.8797 14.9136L44.4592 15.7703C44.7203 15.9109 45.0013 15.9777 45.2758 15.9777ZM58.9416 25.7352C59.3832 27.4351 59.631 29.1485 59.6978 30.8349C54.7053 33.9536 46.8417 37.3868 36.676 40.0169C27.3133 42.4328 19.3294 43.3096 13.5337 43.1957C12.6903 41.5761 12.0079 39.8362 11.5326 37.9958C8.15306 24.9189 16.0367 11.5274 29.107 8.14778C42.1839 4.76798 55.562 12.6583 58.9416 25.7352ZM55.1605 30.594C56.0841 30.594 56.847 29.8646 56.8804 28.9343C57.1146 22.2151 51.2186 16.607 50.9643 16.3728C50.275 15.7235 49.1908 15.7639 48.5417 16.453C47.8925 17.1424 47.9261 18.2332 48.6153 18.8823C48.662 18.9291 53.6278 23.6673 53.4404 28.8138C53.407 29.7574 54.1498 30.5604 55.1001 30.594C55.1202 30.594 55.1405 30.594 55.1605 30.594Z" fill="#505967"/>
<path d="M56.8806 28.9346C56.8472 29.8649 56.0842 30.5944 55.1607 30.5944C55.1406 30.5944 55.1206 30.5944 55.1005 30.5944C54.1502 30.561 53.4073 29.7577 53.4408 28.8141C53.6281 23.6675 48.6623 18.9291 48.6155 18.8824C47.9261 18.2331 47.8927 17.1424 48.542 16.453C49.1912 15.7636 50.2752 15.7235 50.9646 16.3728C51.2186 16.607 57.1148 22.2152 56.8806 28.9346Z" fill="#2D213F"/>
<path d="M46.1056 12.7522C46.9356 13.2071 47.2433 14.2513 46.7883 15.0879C46.4737 15.6568 45.8848 15.9781 45.2758 15.9781C45.0013 15.9781 44.7204 15.9112 44.4595 15.7706L42.8799 14.9139C42.0499 14.4589 41.7422 13.4148 42.1972 12.5781C42.6522 11.7415 43.6963 11.4404 44.5263 11.8954L46.1056 12.7522Z" fill="#2D213F"/>
<path d="M8.4077 0.866486C10.9041 0.866486 12.9186 2.88764 12.9186 5.37715C12.9186 7.87357 10.9041 9.89472 8.4077 9.89472C5.91796 9.89472 3.90372 7.87357 3.90372 5.37715C3.90349 2.88764 5.91796 0.866486 8.4077 0.866486Z" fill="#2D213F"/>
</svg>
